<svg xmlns="http://www.w3.org/2000/svg" width="26.563" height="22" viewBox="0 0 26.563 22">
  <g id="그룹_5" data-name="그룹 5" transform="translate(-858.958 103.228)">
    <circle id="타원_3" data-name="타원 3" cx="1.584" cy="1.584" r="1.584" transform="translate(870.656 -84.396)" fill="#fff"/>
    <path id="패스_5" data-name="패스 5" d="M864.578-85.13h-.85a4.54,4.54,0,0,1-4.77-4.719,4.54,4.54,0,0,1,4.77-4.719h.85Zm-1.7-7.647a2.794,2.794,0,0,0-2.22,2.928,2.794,2.794,0,0,0,2.22,2.929Z" fill="#fff"/>
    <path id="패스_6" data-name="패스 6" d="M880.751-85.13h-.85v-9.438h.85a4.54,4.54,0,0,1,4.77,4.719A4.54,4.54,0,0,1,880.751-85.13Zm.85-7.647v5.857a2.794,2.794,0,0,0,2.22-2.929A2.794,2.794,0,0,0,881.6-92.777Z" fill="#fff"/>
    <path id="패스_7" data-name="패스 7" d="M875.685-82.1H875.4v-1.7h.138a9.244,9.244,0,0,0,2.544-.2c2.059-.789,1.832-3.244,1.821-3.348l1.69-.186a4.888,4.888,0,0,1-2.9,5.121A9.314,9.314,0,0,1,875.685-82.1Z" fill="#fff"/>
    <path id="패스_8" data-name="패스 8" d="M881.6-85.514h-1.7v-8.027a7.839,7.839,0,0,0-7.661-7.989c-3.814,0-7.662,2.146-7.662,6.94v9.076h-1.7V-94.59c0-5.086,3.85-8.638,9.362-8.638a9.54,9.54,0,0,1,9.361,9.687Z" fill="#fff"/>
  </g>
</svg>
